HIERARCHY
ROOT joint_Root
{
	OFFSET 0.0 0.0 0.0
	CHANNELS 6 Xposition Yposition Zposition Zrotation Xrotation Yrotation 
	JOINT Hips
	{
		OFFSET -0.726466 93.3139 -2.00062
		CHANNELS 6 Xposition Yposition Zposition Zrotation Xrotation Yrotation 
		JOINT Spine
		{
			OFFSET 15.7357 0.0 0.0
			CHANNELS 6 Xposition Yposition Zposition Zrotation Xrotation Yrotation 
			JOINT Chest
			{
				OFFSET 8.98455 -0.406207 0.0
				CHANNELS 6 Xposition Yposition Zposition Zrotation Xrotation Yrotation 
				JOINT Neck
				{
					OFFSET 16.3773 0.0 0.0
					CHANNELS 6 Xposition Yposition Zposition Zrotation Xrotation Yrotation 
					JOINT Head
					{
						OFFSET 6.45672 0.0 0.0
						CHANNELS 6 Xposition Yposition Zposition Zrotation Xrotation Yrotation 
						End Site
						{
							OFFSET 0.0 0.0 0.0
						}
					}
				}
				JOINT Shoulder_L
				{
					OFFSET 12.9942 -0.242716 4.98039
					CHANNELS 6 Xposition Yposition Zposition Zrotation Xrotation Yrotation 
					JOINT UpperArm_L
					{
						OFFSET 5.34809 0.0 0.0
						CHANNELS 6 Xposition Yposition Zposition Zrotation Xrotation Yrotation 
						JOINT LowerArm_L
						{
							OFFSET 24.3286 1.87007e-05 0.0
							CHANNELS 6 Xposition Yposition Zposition Zrotation Xrotation Yrotation 
							JOINT Hand_L
							{
								OFFSET 22.2916 0.0 0.0
								CHANNELS 6 Xposition Yposition Zposition Zrotation Xrotation Yrotation 
								End Site
								{
									OFFSET 0.0 0.0 0.0
								}
							}
						}
					}
				}
				JOINT Shoulder_R
				{
					OFFSET 12.9945 -0.242716 -4.98039
					CHANNELS 6 Xposition Yposition Zposition Zrotation Xrotation Yrotation 
					JOINT UpperArm_R
					{
						OFFSET -5.34813 0.0 0.0
						CHANNELS 6 Xposition Yposition Zposition Zrotation Xrotation Yrotation 
						JOINT LowerArm_R
						{
							OFFSET -24.3289 0.000322201 0.0
							CHANNELS 6 Xposition Yposition Zposition Zrotation Xrotation Yrotation 
							JOINT Hand_R
							{
								OFFSET -22.2915 -0.000108084 0.0
								CHANNELS 6 Xposition Yposition Zposition Zrotation Xrotation Yrotation 
								End Site
								{
									OFFSET 0.0 0.0 0.0
								}
							}
						}
					}
				}
			}
		}
		JOINT UpperLeg_L
		{
			OFFSET -2.19248 -6.46944 0.0
			CHANNELS 6 Xposition Yposition Zposition Zrotation Xrotation Yrotation 
			JOINT LowerLeg_L
			{
				OFFSET 39.0811 0.0 -1.23785e-05
				CHANNELS 6 Xposition Yposition Zposition Zrotation Xrotation Yrotation 
				JOINT Foot_L
				{
					OFFSET 40.9854 0.0 -1.26872e-05
					CHANNELS 6 Xposition Yposition Zposition Zrotation Xrotation Yrotation 
					JOINT Toes_L
					{
						OFFSET 11.7543 0.0 0.0
						CHANNELS 6 Xposition Yposition Zposition Zrotation Xrotation Yrotation 
						End Site
						{
							OFFSET 0.0 0.0 0.0
						}
					}
				}
			}
		}
		JOINT UpperLeg_R
		{
			OFFSET -2.19251 6.46944 0.0
			CHANNELS 6 Xposition Yposition Zposition Zrotation Xrotation Yrotation 
			JOINT LowerLeg_R
			{
				OFFSET -39.0811 -0.00228153 -0.0401928
				CHANNELS 6 Xposition Yposition Zposition Zrotation Xrotation Yrotation 
				JOINT Foot_R
				{
					OFFSET -40.9854 0.0 0.0
					CHANNELS 6 Xposition Yposition Zposition Zrotation Xrotation Yrotation 
					JOINT Toes_R
					{
						OFFSET -11.7543 0.0 0.0
						CHANNELS 6 Xposition Yposition Zposition Zrotation Xrotation Yrotation 
						End Site
						{
							OFFSET 0.0 0.0 0.0
						}
					}
				}
			}
		}
	}
}
MOTION
Frames:	5
Frame Time:	0.0333333
0.000000 0.000000 0.000000 0.000000 0.000000 -0.000000 -150.012000 91.049400 193.878000 50.737400 83.662100 41.099900 15.735700 0.000005 -0.000001 78.572200 81.658500 -77.526800 8.984550 -0.406207 -0.000000 8.627760 -3.281560 2.337010 16.377300 -0.000001 -0.000001 5.412170 -0.651913 -0.078513 6.456720 -0.000001 -0.000000 0.314789 3.769150 -0.738777 12.994200 -0.242716 4.980390 -88.788700 -3.509300 -70.943400 5.348090 -0.000007 -0.000001 -54.080700 26.559700 -29.643700 24.328600 0.000019 0.000005 2.887950 2.619850 -47.823000 22.291600 -0.000001 0.000005 7.360700 5.552160 -8.805890 12.994500 -0.242716 -4.980390 88.253400 4.010520 -66.442800 -5.348130 -0.000001 -0.000004 -66.285300 27.484000 -6.540780 -24.328900 0.000322 -0.000009 4.558460 9.126230 -26.692600 -22.291500 -0.000108 -0.000004 3.007240 5.524730 -7.564800 -2.192480 -6.469440 -0.000000 -175.450000 -4.153740 1.107220 39.081100 -0.000007 -0.000012 0.018218 -0.037827 25.715200 40.985400 -0.000006 -0.000013 3.170350 -2.190050 -73.327900 11.754300 -0.000000 0.000003 -1.912540 -2.437610 -16.918800 -2.192510 6.469440 -0.000001 -175.717000 19.776900 155.939000 -39.081100 -0.002282 -0.040193 0.042703 -0.056030 35.123500 -40.985400 0.000008 0.000006 1.418660 -2.508450 -54.043400 -11.754300 -0.000006 -0.000006 -0.022064 -0.178465 -23.868600
0.000000 0.000000 0.000000 0.000000 0.000000 -0.000000 -147.328000 90.732400 194.024000 49.103700 84.640800 42.005900 15.735700 0.000005 -0.000001 75.440600 81.625400 -74.375000 8.984550 -0.406207 -0.000000 8.502210 -4.183730 2.441050 16.377300 -0.000001 -0.000001 5.242750 -0.656111 -0.164894 6.456720 -0.000001 -0.000000 0.247956 4.293950 -0.939551 12.994200 -0.242716 4.980390 -88.719200 -3.774660 -71.241300 5.348090 -0.000007 -0.000001 -51.968600 25.005100 -32.053800 24.328600 0.000019 0.000005 3.165100 2.559750 -51.073600 22.291600 -0.000001 0.000005 7.732680 5.552790 -8.838130 12.994500 -0.242716 -4.980390 88.237400 3.927530 -65.806500 -5.348130 -0.000001 -0.000004 -66.556500 26.686700 -3.734130 -24.328900 0.000322 -0.000009 4.576240 9.360060 -26.208900 -22.291500 -0.000108 -0.000004 2.832210 5.523240 -7.500000 -2.192480 -6.469440 -0.000000 -175.762000 -3.953170 2.774770 39.081100 -0.000007 -0.000012 0.015198 -0.033354 24.495900 40.985400 -0.000006 -0.000013 2.945690 -1.443070 -73.737000 11.754300 -0.000000 0.000003 -1.911430 -2.415380 -17.780100 -2.192510 6.469440 -0.000001 -174.238000 20.548000 154.605000 -39.081100 -0.002282 -0.040193 0.017455 -0.031611 24.101000 -40.985400 0.000008 0.000006 0.317298 -1.582220 -52.622500 -11.754300 -0.000006 -0.000006 -0.021408 -0.174967 -23.724300
0.000000 0.000000 0.000000 0.000000 0.000000 -0.000000 -144.422000 90.180200 194.265000 49.907900 85.649300 40.481500 15.735700 0.000005 -0.000001 72.767600 81.651000 -71.739300 8.984550 -0.406207 -0.000000 8.250310 -4.920220 2.410720 16.377300 -0.000001 -0.000001 5.057590 -0.786170 -0.225408 6.456720 -0.000001 -0.000000 0.169855 4.722860 -1.212260 12.994200 -0.242716 4.980390 -88.719900 -3.837600 -71.536600 5.348090 -0.000007 -0.000001 -50.434500 23.427900 -33.408700 24.328600 0.000019 0.000005 2.999390 2.172390 -54.119400 22.291600 -0.000001 0.000005 8.069530 5.557620 -9.071180 12.994500 -0.242716 -4.980390 88.228900 3.854830 -65.300000 -5.348130 -0.000001 -0.000004 -66.647000 25.966500 -1.050860 -24.328900 0.000322 -0.000009 4.671580 9.616820 -26.070500 -22.291500 -0.000108 -0.000004 2.668770 5.520450 -7.380800 -2.192480 -6.469440 -0.000000 -175.997000 -4.341970 4.461380 39.081100 -0.000007 -0.000012 0.010721 -0.024448 23.677700 40.985400 -0.000006 -0.000013 2.738970 -0.175126 -74.495700 11.754300 -0.000000 0.000003 -1.767570 -2.208570 -18.820600 -2.192510 6.469440 -0.000001 -173.372000 20.325000 153.383000 -39.081100 -0.002282 -0.040193 0.006986 -0.013843 14.790400 -40.985400 0.000008 0.000006 -0.700683 -1.215620 -51.839500 -11.754300 -0.000006 -0.000006 -0.022022 -0.178239 -23.859300
0.000000 0.000000 0.000000 0.000000 0.000000 -0.000000 -141.227000 89.481700 194.710000 47.925300 86.673700 41.688800 15.735700 0.000005 -0.000001 69.815400 81.710500 -68.763800 8.984550 -0.406207 -0.000000 7.877460 -5.695860 2.494960 16.377300 -0.000001 -0.000001 4.835090 -0.868456 -0.252872 6.456720 -0.000001 -0.000000 0.124557 4.959990 -1.377590 12.994200 -0.242716 4.980390 -88.784000 -3.676690 -71.684600 5.348090 -0.000007 -0.000001 -49.256300 22.196400 -34.011300 24.328600 0.000019 0.000005 2.556270 1.675380 -56.784800 22.291600 -0.000001 0.000005 8.254570 5.558420 -9.109510 12.994500 -0.242716 -4.980390 88.191200 3.866630 -64.905800 -5.348130 -0.000001 -0.000004 -66.488400 25.306600 1.091690 -24.328900 0.000322 -0.000009 4.751630 9.897720 -25.812500 -22.291500 -0.000108 -0.000004 2.462140 5.517960 -7.274690 -2.192480 -6.469440 -0.000000 -175.776000 -4.820310 6.008020 39.081100 -0.000007 -0.000012 0.002934 -0.006784 23.386500 40.985400 -0.000006 -0.000013 2.435910 1.525570 -75.032200 11.754300 -0.000000 0.000003 -1.613200 -1.960440 -20.633300 -2.192510 6.469440 -0.000001 -172.331000 20.351200 151.602000 -39.081100 -0.002282 -0.040193 0.004648 -0.008138 9.127220 -40.985400 0.000008 0.000006 -1.526090 -2.579500 -51.539600 -11.754300 -0.000006 -0.000006 -0.022638 -0.181484 -23.993200
0.000000 0.000000 0.000000 0.000000 0.000000 -0.000000 -137.678000 88.723800 195.412000 27.552400 87.807800 61.255800 15.735700 0.000005 -0.000001 66.051900 81.760700 -64.804600 8.984550 -0.406207 -0.000000 7.406110 -6.667920 2.926310 16.377300 -0.000001 -0.000001 4.534000 -1.109960 -0.222619 6.456720 -0.000001 -0.000000 0.108208 5.055560 -1.548800 12.994200 -0.242716 4.980390 -88.891800 -3.405310 -71.961000 5.348090 -0.000007 -0.000001 -48.797200 21.503400 -33.712100 24.328600 0.000019 0.000005 2.230950 1.352050 -58.798200 22.291600 -0.000001 0.000005 8.545910 5.561680 -9.267620 12.994500 -0.242716 -4.980390 88.143500 3.864760 -64.316600 -5.348130 -0.000001 -0.000004 -66.108400 24.726500 2.524510 -24.328900 0.000322 -0.000009 4.841660 10.291100 -25.372500 -22.291500 -0.000108 -0.000004 2.385030 5.515830 -7.185090 -2.192480 -6.469440 -0.000000 -174.863000 -4.937600 6.887910 39.081100 -0.000007 -0.000012 -0.016283 0.036057 24.303900 40.985400 -0.000006 -0.000013 1.974220 3.718180 -74.516600 11.754300 -0.000000 0.000003 -1.365140 -1.626260 -24.407400 -2.192510 6.469440 -0.000001 -170.780000 21.526100 148.802000 -39.081100 -0.002282 -0.040193 0.004454 -0.007056 8.968650 -40.985400 0.000008 0.000006 -3.076750 -3.538190 -51.930800 -11.754300 -0.000006 -0.000006 -0.022864 -0.182666 -24.042000
